<svg id="visual" viewBox="0 0 900 600" width="900" height="600" xmlns="http://www.w3.org/2000/svg"
	xmlns:xlink="http://www.w3.org/1999/xlink" version="1.1">
	<g stroke-width="1" stroke-linejoin="bevel">
		<path d="M504 281L586 198L511 191Z" fill="var(--background-color)"></path>
		<path d="M504 281L607 309L586 198Z" fill="#0c2435"></path>
		<path d="M607 309L662 199L586 198Z" fill="var(--background-color)"></path>
		<path d="M478 100L426 163L511 191Z" fill="var(--background-color)"></path>
		<path d="M504 281L611 362L607 309Z" fill="var(--background-color-2)"></path>
		<path d="M607 309L697 279L662 199Z" fill="#112e42"></path>
		<path d="M478 100L511 191L596 69Z" fill="var(--text-color-dim)"></path>
		<path d="M511 191L426 163L504 281Z" fill="var(--background-color)"></path>
		<path d="M596 69L511 191L586 198Z" fill="#112e42"></path>
		<path d="M677 387L697 279L607 309Z" fill="#112e42"></path>
		<path d="M662 199L596 69L586 198Z" fill="#205a7a"></path>
		<path d="M426 163L379 304L504 281Z" fill="var(--text-color-dim)"></path>
		<path d="M504 281L463 413L611 362Z" fill="#246688"></path>
		<path d="M425 408L463 413L504 281Z" fill="#0c2435"></path>
		<path d="M765 106L697 119L806 203Z" fill="var(--background-color-2)"></path>
		<path d="M662 199L697 119L596 69Z" fill="#1d4e6b"></path>
		<path d="M662 487L677 387L611 362Z" fill="var(--background-color)"></path>
		<path d="M611 362L677 387L607 309Z" fill="#246688"></path>
		<path d="M379 304L425 408L504 281Z" fill="#081a28"></path>
		<path d="M370 106L339 181L426 163Z" fill="#00101c"></path>
		<path d="M426 163L339 181L379 304Z" fill="#00101c"></path>
		<path d="M478 100L370 106L426 163Z" fill="#1d4e6b"></path>
		<path d="M429 0L370 106L478 100Z" fill="#1d4e6b"></path>
		<path d="M617 0L488 0L596 69Z" fill="#00101c"></path>
		<path d="M596 69L488 0L478 100Z" fill="#112e42"></path>
		<path d="M339 181L305 304L379 304Z" fill="#112e42"></path>
		<path d="M379 304L333 436L425 408Z" fill="#205a7a"></path>
		<path d="M697 119L617 0L596 69Z" fill="var(--text-color-dim)"></path>
		<path d="M412 479L463 413L425 408Z" fill="#246688"></path>
		<path d="M412 479L489 484L463 413Z" fill="#205a7a"></path>
		<path d="M463 413L489 484L611 362Z" fill="#1d4e6b"></path>
		<path d="M806 203L697 119L662 199Z" fill="var(--background-color)"></path>
		<path d="M697 119L718 0L617 0Z" fill="#112e42"></path>
		<path d="M806 203L662 199L697 279Z" fill="var(--background-color)"></path>
		<path d="M828 282L806 203L697 279Z" fill="#081a28"></path>
		<path d="M488 0L429 0L478 100Z" fill="#246688"></path>
		<path d="M489 484L607 504L611 362Z" fill="var(--background-color-2)"></path>
		<path d="M677 387L828 282L697 279Z" fill="#1d4e6b"></path>
		<path d="M333 436L412 479L425 408Z" fill="var(--background-color-2)"></path>
		<path d="M489 484L567 600L607 504Z" fill="#112e42"></path>
		<path d="M607 504L662 487L611 362Z" fill="#112e42"></path>
		<path d="M837 431L828 282L677 387Z" fill="var(--background-color-2)"></path>
		<path d="M305 304L333 436L379 304Z" fill="#0c2435"></path>
		<path d="M765 106L718 0L697 119Z" fill="#00101c"></path>
		<path d="M370 106L282 60L339 181Z" fill="var(--background-color)"></path>
		<path d="M166 225L185 294L305 304Z" fill="#246688"></path>
		<path d="M299 0L282 60L370 106Z" fill="#081a28"></path>
		<path d="M900 109L771 0L765 106Z" fill="var(--background-color-2)"></path>
		<path d="M765 106L771 0L718 0Z" fill="#1d4e6b"></path>
		<path d="M900 109L765 106L806 203Z" fill="#246688"></path>
		<path d="M429 0L299 0L370 106Z" fill="#246688"></path>
		<path d="M762 527L837 431L677 387Z" fill="#081a28"></path>
		<path d="M214 0L227 90L282 60Z" fill="#19435d"></path>
		<path d="M282 60L227 90L339 181Z" fill="var(--background-color-2)"></path>
		<path d="M305 304L171 367L333 436Z" fill="#205a7a"></path>
		<path d="M662 487L762 527L677 387Z" fill="#205a7a"></path>
		<path d="M674 600L762 527L662 487Z" fill="#0c2435"></path>
		<path d="M674 600L662 487L607 504Z" fill="var(--background-color-2)"></path>
		<path d="M480 600L489 484L419 600Z" fill="#205a7a"></path>
		<path d="M480 600L567 600L489 484Z" fill="#205a7a"></path>
		<path d="M900 317L900 170L828 282Z" fill="#0c2435"></path>
		<path d="M828 282L900 170L806 203Z" fill="#246688"></path>
		<path d="M166 225L305 304L339 181Z" fill="#081a28"></path>
		<path d="M837 431L900 317L828 282Z" fill="#081a28"></path>
		<path d="M419 600L412 479L260 525Z" fill="#0c2435"></path>
		<path d="M419 600L489 484L412 479Z" fill="#00101c"></path>
		<path d="M900 170L900 109L806 203Z" fill="#081a28"></path>
		<path d="M227 90L166 225L339 181Z" fill="#112e42"></path>
		<path d="M260 525L412 479L333 436Z" fill="var(--background-color-2)"></path>
		<path d="M567 600L674 600L607 504Z" fill="#112e42"></path>
		<path d="M100 288L171 367L185 294Z" fill="#112e42"></path>
		<path d="M185 294L171 367L305 304Z" fill="#246688"></path>
		<path d="M900 496L900 427L837 431Z" fill="#081a28"></path>
		<path d="M837 431L900 427L900 317Z" fill="var(--background-color)"></path>
		<path d="M900 496L837 431L762 527Z" fill="#00101c"></path>
		<path d="M196 483L260 525L333 436Z" fill="#0c2435"></path>
		<path d="M227 90L83 100L166 225Z" fill="#205a7a"></path>
		<path d="M299 0L214 0L282 60Z" fill="var(--background-color-2)"></path>
		<path d="M171 367L196 483L333 436Z" fill="#246688"></path>
		<path d="M900 109L900 0L771 0Z" fill="var(--background-color-2)"></path>
		<path d="M811 600L900 496L762 527Z" fill="var(--background-color)"></path>
		<path d="M166 225L100 288L185 294Z" fill="var(--background-color)"></path>
		<path d="M171 367L136 433L196 483Z" fill="#081a28"></path>
		<path d="M61 187L100 288L166 225Z" fill="#081a28"></path>
		<path d="M674 600L811 600L762 527Z" fill="#112e42"></path>
		<path d="M100 288L136 433L171 367Z" fill="#112e42"></path>
		<path d="M216 600L267 600L260 525Z" fill="#205a7a"></path>
		<path d="M260 525L267 600L419 600Z" fill="var(--background-color-2)"></path>
		<path d="M216 600L260 525L196 483Z" fill="var(--text-color-dim)"></path>
		<path d="M214 0L83 100L227 90Z" fill="#19435d"></path>
		<path d="M83 100L61 187L166 225Z" fill="var(--background-color)"></path>
		<path d="M0 410L72 478L136 433Z" fill="#112e42"></path>
		<path d="M109 600L216 600L196 483Z" fill="#112e42"></path>
		<path d="M811 600L900 600L900 496Z" fill="var(--text-color-dim)"></path>
		<path d="M214 0L80 0L83 100Z" fill="#1d4e6b"></path>
		<path d="M0 137L0 198L61 187Z" fill="var(--text-color-dim)"></path>
		<path d="M0 410L136 433L100 288Z" fill="#205a7a"></path>
		<path d="M136 433L72 478L196 483Z" fill="var(--text-color-dim)"></path>
		<path d="M0 137L61 187L83 100Z" fill="var(--text-color-dim)"></path>
		<path d="M61 187L0 297L100 288Z" fill="#205a7a"></path>
		<path d="M0 198L0 297L61 187Z" fill="#0c2435"></path>
		<path d="M0 0L0 137L83 100Z" fill="var(--text-color-dim)"></path>
		<path d="M72 478L109 600L196 483Z" fill="#246688"></path>
		<path d="M0 600L109 600L72 478Z" fill="#1d4e6b"></path>
		<path d="M0 297L0 410L100 288Z" fill="var(--text-color-dim)"></path>
		<path d="M80 0L0 0L83 100Z" fill="#205a7a"></path>
		<path d="M0 410L0 495L72 478Z" fill="#205a7a"></path>
		<path d="M0 495L0 600L72 478Z" fill="#081a28"></path>
	</g>
</svg>