<?xml version="1.0" encoding="UTF-8" standalone="no"?>
<!-- Created with Inkscape (http://www.inkscape.org/) -->

<svg
   xmlns:dc="http://purl.org/dc/elements/1.1/"
   xmlns:cc="http://creativecommons.org/ns#"
   xmlns:rdf="http://www.w3.org/1999/02/22-rdf-syntax-ns#"
   xmlns:svg="http://www.w3.org/2000/svg"
   xmlns="http://www.w3.org/2000/svg"
   xmlns:sodipodi="http://sodipodi.sourceforge.net/DTD/sodipodi-0.dtd"
   xmlns:inkscape="http://www.inkscape.org/namespaces/inkscape"
   width="496.55081mm"
   height="238.95901mm"
   viewBox="0 0 496.55081 238.95903"
   version="1.1"
   id="svg5994"
   inkscape:version="0.92.5 (2060ec1f9f, 2020-04-08)"
   sodipodi:docname="laptop_blank_top.svg">
  <defs
     id="defs5988" />
  <sodipodi:namedview
     id="base"
     pagecolor="#ffffff"
     bordercolor="#666666"
     borderopacity="1.0"
     inkscape:pageopacity="0.0"
     inkscape:pageshadow="2"
     inkscape:zoom="0.35"
     inkscape:cx="975.84176"
     inkscape:cy="-2.0819845"
     inkscape:document-units="mm"
     inkscape:current-layer="g5986"
     showgrid="false"
     inkscape:window-width="1920"
     inkscape:window-height="1016"
     inkscape:window-x="0"
     inkscape:window-y="27"
     inkscape:window-maximized="1"
     fit-margin-top="0"
     fit-margin-left="0"
     fit-margin-right="0"
     fit-margin-bottom="-37.3" />
  <metadata
     id="metadata5991">
    <rdf:RDF>
      <cc:Work
         rdf:about="">
        <dc:format>image/svg+xml</dc:format>
        <dc:type
           rdf:resource="http://purl.org/dc/dcmitype/StillImage" />
        <dc:title></dc:title>
      </cc:Work>
    </rdf:RDF>
  </metadata>
  <g
     inkscape:label="Layer 1"
     inkscape:groupmode="layer"
     id="layer1"
     transform="translate(288.21521,3.8221291)">
    <g
       id="g5986"
       transform="matrix(0.26458333,0,0,0.26458333,-385.88201,-415.32517)">
      <path
         inkscape:connector-curvature="0"
         id="path5975"
         d="m 431.90719,2597.1652 c -21.52045,-1.8283 -29.44875,-2.9535 -42.26725,-5.9982 -22.95054,-5.4513 -20.42325,-2.7152 -20.42325,-22.1105 v -16.4679 l 2.83871,-1.9888 c 1.56129,-1.0939 6.09032,-3.0519 10.06452,-4.3512 3.97419,-1.2992 61.25671,-20.8451 127.29449,-43.4351 66.03777,-22.59 122.59261,-41.3882 125.67742,-41.7736 5.21079,-0.6511 6.27898,-1.4313 5.58063,-4.0758 -2.96339,-11.2221 -2.99288,-15.4654 -3.03072,-436.0445 -0.0278,-309.0084 0.27373,-423.4073 1.12921,-428.3871 2.28249,-13.2868 11.40333,-25.5273 23.52557,-31.5723 12.1224,-6.0451 -30.76094,-5.6654 640.26488,-5.6696 428.1988,0 619.4279,0.3303 625.0322,1.0884 20.9434,2.8334 36.5968,17.3836 39.5623,36.7738 0.7371,4.8199 0.9875,140.8724 0.7943,431.8113 -0.2569,387.1953 -0.4286,425.1553 -1.9402,429.0819 -0.9121,2.3692 -1.3766,4.7297 -1.0323,5.2454 0.3444,0.5157 3.6944,1.4365 7.4446,2.0462 10.1259,1.6461 268.249,87.6465 271.117,90.3297 2.2061,2.0639 2.3226,2.9388 2.3226,17.453 0,14.7216 -0.085,15.3339 -2.3226,16.7524 -5.2212,3.3099 -34.6436,8.9668 -57.9223,11.1364 l -22.8519,2.1299 -852.1844,0.1383 -852.18433,0.1384 z M 1904.84,2397.8328 c 1.6512,-1.6512 0.1686,-782.4767 -1.4816,-785.5602 -1.0547,-1.9707 19.4202,-8.4698 -600.4643,-8.4698 -619.88447,0 -601.0487,6.4657 -602.10338,8.4363 -1.49619,2.7957 -1.73206,781.7276 -0.23587,784.5233 1.05468,1.9707 -17.19,6.1037 602.52625,6.1037 486.9796,0 600.7981,-4.0725 601.7589,-5.0333 z"
         style="fill:#535353;stroke-width:1.03225803"
         sodipodi:nodetypes="csscccsccscccccsccccsccccccscsccss" />
      <path
         inkscape:connector-curvature="0"
         id="path5973"
         d="m 433.6756,2596.0334 c -64.4891,-5.4488 -110.37167,-5.1764 873.3476,-5.1823 738.5026,0 909.6667,0.2427 906.296,1.3083 -2.2855,0.7225 -15.9887,2.3637 -30.4516,3.647 l -26.2961,2.3332 -847.5411,0.1219 -847.54105,0.122 z m 736.5734,-17.47 c -5.0814,-1.837 -8.2002,-3.8525 -10.2484,-6.623 -1.2763,-1.7262 -2.0902,-3.369 -1.8086,-3.6506 0.2816,-0.2816 4.361,1.4969 9.0655,3.9521 l 8.5534,4.4641 89.3481,0.5329 89.348,0.5328 -89.9801,0.2414 c -49.489,0.1327 -90.5987,0.4367 -91.3548,0.6757 -0.7561,0.2389 -2.0715,0.1824 -2.9231,-0.1254 z m 272.5161,-1.5155 c 1.4193,-0.5867 4.0903,-1.709 5.9355,-2.494 1.8451,-0.7851 3.3548,-1.0208 3.3548,-0.5239 0,1.1091 -7.6266,4.2507 -10.0854,4.1545 -1.2424,-0.048 -1.0004,-0.3944 0.7951,-1.1366 z m -680.43022,-21.4693 c -213.84952,-0.3026 -389.17855,-0.9113 -389.62008,-1.3529 -2.13287,-2.133 6.81215,-5.7762 51.21157,-20.8572 26.4,-8.9672 83.07097,-28.3246 125.93548,-43.0165 42.86452,-14.6919 80.76002,-27.1657 84.21221,-27.7195 3.4522,-0.5539 7.8651,-1.8236 9.80645,-2.8215 3.35073,-1.7227 27.97724,-1.8277 485.59429,-2.0703 550.7345,-0.2923 831.3333,0.5684 833.7289,2.5573 0.8409,0.6982 4.5231,1.6934 8.1829,2.2117 8.2075,1.1623 268.6346,87.3598 270.413,89.5027 0.6929,0.8347 0.9226,1.8549 0.5105,2.267 -1.2078,1.2077 -781.1364,1.9536 -783.545,0.7492 -2.8374,-1.4187 -288.8265,-1.9843 -297.2903,-0.588 -3.4065,0.562 -7.1226,1.1717 -8.2581,1.3549 -1.1355,0.1831 -177.0323,0.086 -390.88182,-0.2169 z m 889.87622,-46.1126 c 10.8978,-0.7142 13.0984,-1.7768 6.554,-3.1648 -2.129,-0.4515 -162.0387,-0.821 -355.3549,-0.821 -301.9186,0 -351.92052,0.2073 -354.5806,1.4697 l -3.09677,1.4696 3.6129,0.7049 c 4.67109,0.9114 689.09477,1.244 702.86537,0.3416 z m -858.68508,-9.1736 c 4.22625,-2.1855 3.80301,-3.5864 -1.08352,-3.5864 -3.71613,0 -4.12903,0.2581 -4.12903,2.5807 0,2.9899 1.00183,3.1832 5.21255,1.0057 z m 98.81583,-0.032 c 3.49758,-2.4497 2.76698,-3.5544 -2.35096,-3.5544 -4.64878,0 -5.19018,0.4754 -4.01859,3.5285 0.79674,2.0763 3.42697,2.0869 6.36955,0.026 z m 736.04345,-1.2318 c 0.3082,-2.1701 -0.047,-2.3226 -5.4193,-2.3226 -6.22,0 -6.667,0.3719 -3.9956,3.3237 2.5798,2.8507 8.9642,2.1719 9.4149,-1.0011 z m 97.2185,0.2581 c 0,-2.3704 -0.3785,-2.5807 -4.6452,-2.5807 -2.5548,0 -4.6451,0.4079 -4.6451,0.9064 0,1.4617 4.4456,4.142 6.9677,4.2007 1.8037,0.042 2.3226,-0.5223 2.3226,-2.5264 z m -1029.1613,-0.5162 2.58065,-2.0185 -4.3871,-0.023 c -2.97922,-0.015 -4.3871,0.4187 -4.3871,1.3534 0,3.2675 2.53591,3.5492 6.19355,0.6882 z m 1125.9993,-0.2699 c 0.286,-1.4851 -0.424,-1.7887 -4.1172,-1.7602 l -4.4627,0.034 2.4905,2.0736 c 2.8775,2.3957 5.5909,2.2409 6.0894,-0.3477 z m 98.2588,0.2699 c 0,-1.7586 -0.6882,-2.0645 -4.6452,-2.0645 -4.9674,0 -6.1301,1.5342 -2.3226,3.0646 4.1551,1.6702 6.9678,1.2665 6.9678,-1.0001 z m -1086.19042,-9.0417 c 0.29272,-0.8781 -0.87903,-1.2808 -3.72719,-1.2808 -4.77631,0 -5.41888,0.6134 -4.15322,3.9651 0.9115,2.4137 0.91659,2.4143 4.18303,0.5066 1.79873,-1.0505 3.46255,-2.4864 3.69738,-3.1909 z m 93.41619,2.0151 c 2.79909,-2.4039 2.17045,-3.2959 -2.32258,-3.2959 -3.67816,0 -4.12903,0.2724 -4.12903,2.4946 0,3.8992 2.48496,4.2078 6.45161,0.8013 z m 94.48003,1.2907 c 3.7201,-2.6056 2.9136,-4.5866 -1.8673,-4.5866 -4.8431,0 -6.6926,2.4971 -3.5509,4.7944 2.4026,1.7568 2.6255,1.7482 5.4182,-0.2078 z m 96.1537,-0.6139 c 2.7774,-2.9811 1.8794,-3.9727 -3.5979,-3.9727 -4.1683,0 -4.5842,0.2279 -4.5842,2.5121 0,1.9479 0.6374,2.6086 2.8387,2.942 1.5613,0.2366 2.9367,0.4997 3.0566,0.5848 0.1198,0.085 1.1489,-0.8447 2.2868,-2.0662 z m 94.8372,0.9821 c 0.6813,-0.6813 1.2388,-2.0748 1.2388,-3.0968 0,-1.5103 -0.858,-1.858 -4.5843,-1.858 -4.8433,0 -6.1325,0.8684 -5.1377,3.4609 0.9784,2.5495 6.462,3.5152 8.4832,1.4939 z m 93.8839,0.5881 c 1.5849,-0.4247 2.3226,-1.4039 2.3226,-3.0826 0,-2.2302 -0.4374,-2.4603 -4.6776,-2.4603 -5.3456,0 -7.3662,2.382 -4.067,4.7944 2.1237,1.5529 3.0273,1.6582 6.422,0.7485 z m 95.022,-0.014 c 1.6878,-0.4521 2.2862,-1.2708 2.0645,-2.8246 -0.2604,-1.8241 -1.1278,-2.2403 -5.2155,-2.5026 -4.3238,-0.2775 -4.9032,-0.07 -4.9032,1.7551 0,3.2885 3.4314,4.8103 8.0542,3.5721 z m 96.599,-1.4033 c 2.1221,-2.0723 -0.3401,-4.1254 -4.947,-4.1254 -5.5329,0 -6.6068,1.2284 -3.6544,4.1808 2.1871,2.1872 6.3321,2.1604 8.6014,-0.056 z m 93.6965,1.0358 c 0.5608,0 0.8712,-1.0451 0.6898,-2.3225 -0.2815,-1.9821 -1.0488,-2.3688 -5.2331,-2.6372 -2.735,-0.1755 -4.9032,0.1337 -4.9032,0.6992 0,1.6706 5.4256,5.4122 6.982,4.815 0.7947,-0.305 1.9038,-0.5545 2.4645,-0.5545 z m 95.6394,-2.9083 c -0.2269,-1.1981 -1.5691,-1.8387 -4.3273,-2.0653 -5.5737,-0.4579 -6.6581,1.1251 -2.5517,3.725 3.7559,2.3781 7.4739,1.4811 6.879,-1.6597 z m 95.1612,2.4053 c 2.3091,-2.7822 0.4558,-4.6582 -4.6018,-4.6582 -5.523,0 -5.9453,1.3219 -1.3227,4.1403 4.0264,2.455 4.2973,2.4787 5.9245,0.5179 z m -984.21081,-8.3899 c 3.52255,-2.308 3.18049,-3.4941 -1.00764,-3.4941 -3.79191,0 -5.24561,1.2341 -4.31383,3.6623 0.7442,1.9393 2.17396,1.8942 5.32147,-0.1682 z m 93.15336,0.06 c 3.28117,-2.2982 2.83666,-3.5544 -1.25778,-3.5544 -3.88969,0 -5.04975,1.0001 -4.08287,3.5198 0.79488,2.0714 2.41772,2.0819 5.34065,0.035 z m 93.3097,-0.1011 c 2.85253,-2.5815 2.30227,-3.4529 -2.18038,-3.4529 -4.26971,0 -5.7923,1.1544 -4.82996,3.6623 0.77367,2.0161 4.68008,1.8995 7.01034,-0.2094 z m 92.51995,0.4699 c 2.4371,-2.437 1.3656,-3.9225 -2.8294,-3.9225 -4.2697,0 -5.7923,1.1544 -4.8299,3.6623 0.6948,1.8106 5.9311,1.9884 7.6593,0.2602 z m 92.9234,-1.6 c 0.2951,-2.0773 -0.1072,-2.3225 -3.81,-2.3225 -4.3692,0 -5.8679,1.1445 -4.8776,3.7251 0.4217,1.0989 1.7488,1.4667 4.4785,1.2408 3.1179,-0.2578 3.944,-0.7766 4.2091,-2.6434 z m 92.4663,1.1973 c 0.9914,-2.5837 -0.2155,-3.5198 -4.538,-3.5198 -4.2132,0 -5.7281,1.1632 -4.7691,3.6623 0.823,2.1447 8.4744,2.0275 9.3071,-0.1425 z m 91.9781,-0.9392 c 0,-1.7306 -0.7931,-2.1154 -4.9032,-2.3791 -4.8838,-0.3134 -5.4892,0.1674 -4.2564,3.3799 0.4837,1.2604 1.721,1.6073 4.9033,1.3747 3.4644,-0.2531 4.2563,-0.6951 4.2563,-2.3755 z m 91.8709,0 c 0,-1.7306 -0.793,-2.1154 -4.9032,-2.3791 -3.5915,-0.2304 -4.9032,0.06 -4.9032,1.0838 0,2.5001 2.4939,3.9769 6.1891,3.6651 2.8275,-0.2386 3.6173,-0.7561 3.6173,-2.3698 z m 91.871,0 c 0,-1.7306 -0.7931,-2.1154 -4.9032,-2.3791 -5.323,-0.3416 -5.8296,0.1607 -3.1495,3.1221 2.4197,2.6737 8.0527,2.1539 8.0527,-0.743 z m 91.871,0 c 0,-1.6908 -0.794,-2.122 -4.3871,-2.3819 -4.7363,-0.3427 -5.7721,1.0829 -2.5807,3.5518 2.689,2.0801 6.9678,1.3616 6.9678,-1.1699 z m 91.871,0 c 0,-1.6908 -0.7941,-2.122 -4.3871,-2.3819 -4.868,-0.3522 -5.58,0.7708 -2.0646,3.2558 3.1255,2.2095 6.4517,1.7589 6.4517,-0.8739 z m 92.0404,-0.9629 c -0.7044,-1.8355 -7.9114,-2.3235 -7.9114,-0.5356 0,1.5247 6.5113,4.1236 7.6209,3.0418 0.5012,-0.4886 0.6319,-1.6164 0.2905,-2.5062 z m -1024.63435,-5.2572 c 4.07907,-2.1093 3.8454,-3.5863 -0.56739,-3.5863 -3.1656,0 -3.61291,0.3194 -3.61291,2.5806 0,3.028 0.18403,3.0723 4.1803,1.0057 z m 90.96423,-0.1334 c 2.68472,-2.4297 2.34448,-3.4529 -1.14812,-3.4529 -3.31649,0 -4.69349,1.3279 -3.7977,3.6623 0.75842,1.9764 2.61749,1.8977 4.94582,-0.2094 z m 89.80645,0 c 2.77582,-2.5121 2.32235,-3.4529 -1.66424,-3.4529 -3.79191,0 -5.24561,1.2341 -4.31383,3.6623 0.76757,2.0002 3.64788,1.8994 5.97807,-0.2094 z m 90.45547,0.4696 c 2.4498,-2.4497 1.3645,-3.9225 -2.8903,-3.9225 -3.7161,0 -4.129,0.258 -4.129,2.5806 0,2.1382 0.4954,2.5806 2.8903,2.5806 1.5897,0 3.4477,-0.5574 4.129,-1.2387 z m 90.4524,-0.4822 c 0.9544,-2.4871 -0.7058,-3.6388 -4.6953,-3.2574 -2.7042,0.2584 -3.5601,0.8542 -3.816,2.6558 -0.2944,2.0734 0.1091,2.3225 3.7605,2.3225 2.866,0 4.2881,-0.5152 4.7508,-1.7209 z m 89.776,0.079 c 0.9914,-2.5836 -0.2155,-3.5197 -4.5381,-3.5197 -4.2132,0 -5.728,1.1632 -4.769,3.6623 0.823,2.1447 8.4744,2.0275 9.3071,-0.1426 z m 89.2112,-0.681 c -0.2743,-1.9308 -1.07,-2.3762 -4.717,-2.64 -3.7265,-0.2697 -4.3871,-0.024 -4.3871,1.6343 0,2.7949 0.8662,3.3282 5.4051,3.3282 3.5876,0 3.9927,-0.2543 3.699,-2.3225 z m 89.4765,-0.2581 c 0,-1.5872 -0.7984,-2.141 -3.4531,-2.3954 -5.1741,-0.4955 -6.6916,0.3506 -5.298,2.9545 1.6073,3.0034 8.7511,2.5471 8.7511,-0.5591 z m 89.1041,0.2581 c -0.2742,-1.9308 -1.07,-2.3762 -4.717,-2.64 -3.1626,-0.2289 -4.3871,0.073 -4.3871,1.0838 0,2.3718 2.3139,3.8787 5.9558,3.8787 3.0165,0 3.4344,-0.3082 3.1483,-2.3225 z m 89.4766,-0.2581 c 0,-1.6908 -0.794,-2.122 -4.3871,-2.3819 -3.1626,-0.2289 -4.3871,0.073 -4.3871,1.0838 0,2.4056 2.442,3.9844 5.6724,3.6672 2.3121,-0.2271 3.1018,-0.8302 3.1018,-2.3691 z m 89.1041,0.2581 c -0.265,-1.8656 -1.0915,-2.3857 -4.2009,-2.643 -2.129,-0.1762 -3.871,0.02 -3.871,0.4349 0,1.7639 3.6086,4.5306 5.9092,4.5306 1.9943,0 2.4265,-0.4642 2.1627,-2.3225 z m 89.2855,0.9 c 0.7867,-2.0506 -1.3176,-3.7387 -4.6606,-3.7387 -3.4802,0 -3.7105,1.373 -0.5961,3.5543 2.8331,1.9844 4.5429,2.0444 5.2567,0.1844 z m 89.2905,-1.4162 c -0.2254,-1.1896 -1.4846,-1.9169 -3.6886,-2.1299 -3.6274,-0.3506 -4.4376,1.1337 -1.5399,2.8214 2.9335,1.7086 5.616,1.3539 5.2285,-0.6915 z m -845.5081,-5.0108 c -0.343,-0.343 -1.2333,-0.3796 -1.9785,-0.082 -0.8234,0.3295 -0.5788,0.5741 0.6237,0.6237 1.0882,0.044 1.6978,-0.1992 1.3548,-0.5423 z m 87.2473,-0.06 c -0.7096,-0.2864 -1.8709,-0.2864 -2.5806,0 -0.7097,0.2863 -0.129,0.5206 1.2903,0.5206 1.4194,0 2,-0.2343 1.2903,-0.5206 z m 87.7616,0.01 c -0.6989,-0.2828 -2.0924,-0.3 -3.0968,-0.038 -1.0043,0.2618 -0.4325,0.4931 1.2707,0.5142 1.7032,0.021 2.525,-0.1932 1.8261,-0.4759 z m 87.2062,-0.034 c -0.9936,-0.2597 -2.6194,-0.2597 -3.6129,0 -0.9936,0.2596 -0.1807,0.4721 1.8064,0.4721 1.9871,0 2.8,-0.2125 1.8065,-0.4721 z m 87.754,0 c -0.9869,-0.2583 -2.845,-0.2677 -4.129,-0.021 -1.2842,0.2469 -0.4766,0.4583 1.7943,0.4698 2.271,0.011 3.3215,-0.1906 2.3347,-0.449 z m 86.6976,0 c -0.9936,-0.2597 -2.6194,-0.2597 -3.6129,0 -0.9936,0.2596 -0.1807,0.4721 1.8064,0.4721 1.9871,0 2.8,-0.2125 1.8065,-0.4721 z m 87.2454,0.034 c -0.6988,-0.2828 -2.0924,-0.3 -3.0968,-0.038 -1.0042,0.2618 -0.4325,0.4931 1.2707,0.5142 1.7033,0.021 2.5251,-0.1932 1.8261,-0.4759 z m 87.1847,0.054 c -0.343,-0.343 -1.2333,-0.3797 -1.9785,-0.082 -0.8234,0.3295 -0.5789,0.5742 0.6237,0.6237 1.0881,0.044 1.6979,-0.1992 1.3548,-0.5422 z"
         style="fill:#404040;fill-opacity:0.35680751;stroke-width:1.03225803" />
      <path
         inkscape:connector-curvature="0"
         id="path5971"
         d="m 434.24895,2595.1644 -25.29032,-2.1868 894.45157,-0.017 c 491.9484,-0.01 893.7549,0.1413 892.9033,0.3335 -0.8516,0.1922 -9.9097,1.1242 -20.1291,2.0708 -17.154,1.5892 -83.7653,1.7315 -867.6129,1.8534 l -849.03223,0.1324 z m 16.3434,-42.6672 c -39.55306,-0.311 -72.20903,-0.8601 -72.56882,-1.2202 -0.35979,-0.3602 0.87923,-1.211 2.75337,-1.8906 4.44451,-1.6118 150.23854,-51.5189 223.79463,-76.6077 13.34194,-4.5507 27.04516,-8.7136 30.45162,-9.2509 15.81058,-2.4936 20.62859,-2.8776 35.09677,-2.7973 8.51613,0.047 14.55484,0.3174 13.41936,0.6003 -2.85643,0.7116 -52.68776,19.8862 -69.67742,26.8111 -16.47231,6.7141 -27.87719,12.4918 -27.85517,14.1114 0.0527,3.8808 -3.32012,3.7988 152.31942,3.7004 199.02763,-0.1257 202.99018,-0.107 202.58951,0.9532 -0.18925,0.5009 -6.38279,5.6899 -13.76344,11.5312 -29.25601,23.1541 -36.64516,29.3261 -36.64516,30.6086 0,0.7352 0.7251,1.3368 1.61133,1.3368 0.88624,0 12.70128,-8.5444 26.25564,-18.9875 l 24.6443,-18.9875 13.74436,-0.6888 c 7.5594,-0.3789 170.05405,-0.5443 361.09925,-0.3675 345.2556,0.3196 347.3752,0.3341 350.7311,2.3861 1.8569,1.1355 14.2726,10.1111 27.5904,19.9457 24.0187,17.737 28.4178,20.1027 29.1328,15.6672 0.2034,-1.2614 -30.0106,-24.1707 -52.0816,-39.4903 -1.8354,-1.2739 -3.3451,-2.6645 -3.3549,-3.0904 -0.01,-0.4258 11.0144,-0.7886 24.4983,-0.8064 310.5262,-0.4074 338.7987,-0.5469 339.9298,-1.6781 0.9041,-0.9041 0.603,-1.5754 -1.2388,-2.7635 -1.3381,-0.8631 -23.7651,-9.2899 -49.8376,-18.726 -57.9584,-20.9764 -58.5598,-21.1797 -62.7564,-21.2186 -2.4509,-0.023 -2.9579,-0.2831 -1.8341,-0.9419 2.2001,-1.2896 42.1554,0.5897 51.8645,2.4393 4.3991,0.8381 66.4121,20.8846 137.8064,44.5478 114.5015,37.9509 129.5038,43.1607 127.2275,44.1826 -1.8964,0.8512 -105.9051,1.0909 -392.2581,0.9036 -524.3947,-0.3428 -626.9396,-0.3394 -1000.25805,0.033 -176.28388,0.176 -352.87773,0.065 -392.4308,-0.2454 z m 804.01805,-49.5944 -244.4127,-0.5193 3.0153,-3.3013 c 2.8403,-3.1097 3.2404,-3.239 6.8979,-2.2291 2.5639,0.708 18.8167,0.8721 47.8491,0.4831 24.1815,-0.3238 45.3599,-0.4921 47.0631,-0.3738 3.3839,0.2351 80.8233,0.3045 90.8388,0.082 3.4064,-0.075 25.3548,-0.1265 48.7742,-0.1124 23.4193,0.014 45.3677,0.026 48.7741,0.026 3.4065,-1e-4 24.8904,0.048 47.742,0.106 22.8516,0.058 43.871,0.068 46.7097,0.021 2.8387,-0.046 26.529,-0.035 52.6451,0.027 l 47.4839,0.112 2.29,2.5806 c 2.7834,3.1368 2.9355,4.2109 0.5487,3.8742 -0.9935,-0.1402 -111.7922,-0.4886 -246.2192,-0.7742 z m -623.45822,-0.7771 c -22.56774,-0.1552 -41.03226,-0.6285 -41.03226,-1.052 0,-0.4234 3.58119,-1.7732 7.95821,-2.9995 7.08607,-1.9855 8.26827,-2.0694 10.78745,-0.7667 2.27918,1.1786 10.01397,1.4764 39.78372,1.5313 l 36.95449,0.068 -5.67742,1.928 c -3.12258,1.0603 -6.14193,1.848 -6.70968,1.7504 -0.56774,-0.098 -19.49677,-0.3047 -42.06451,-0.4598 z m 103.53658,-0.239 c -31.22986,-0.4445 -37.14294,-0.7549 -34.79015,-1.8258 2.11973,-0.965 13.04018,-1.2782 43.30214,-1.242 l 40.46756,0.048 -5.16129,2.0155 c -2.83871,1.1084 -5.39355,1.9083 -5.67742,1.7775 -0.28387,-0.1309 -17.44725,-0.4789 -38.14084,-0.7734 z m 99.60704,0.2389 c -32.44671,-0.2417 -37.84522,-0.493 -36.12903,-1.6821 2.44906,-1.6968 14.20329,-3.122 22.66283,-2.7479 3.40645,0.1506 18.50322,0.4898 33.54839,0.7536 l 27.35484,0.4798 -3.61291,1.942 c -1.9871,1.0682 -4.07742,1.8512 -4.64516,1.7404 -0.56774,-0.111 -18.19828,-0.3295 -39.17896,-0.4858 z m 69.71695,-0.1978 c -8.52971,-0.506 -9.41461,-0.7308 -7.2258,-1.8363 2.90678,-1.4679 25.44688,-3.6762 27.09939,-2.6548 0.61622,0.3808 18.67409,0.566 40.1286,0.4114 26.90223,-0.1937 39.00816,0.058 39.00816,0.8103 0,0.6003 -1.3704,1.8001 -3.04546,2.6663 -2.60182,1.3454 -9.10608,1.5461 -44.64517,1.3773 -22.8798,-0.1087 -45.97367,-0.4571 -51.31972,-0.7742 z m 607.76995,-1.0039 c -1.3403,-1.0866 -2.179,-2.2349 -1.8638,-2.5517 0.3154,-0.3169 23.7097,-0.6423 51.9875,-0.7232 l 51.4141,-0.147 2.6989,2.6987 2.6987,2.6989 h -52.2492 c -49.9289,0 -52.3575,-0.088 -54.6862,-1.9757 z m 124.7888,0.1608 c -1.5612,-0.9681 -2.8387,-2.117 -2.8387,-2.5532 0,-0.8031 38.4273,-1.3003 64,-0.8281 10.5781,0.1953 14.6194,0.6571 16.7742,1.917 1.5613,0.9129 2.8387,2.0242 2.8387,2.4695 0,0.4453 -17.5354,0.7973 -38.9677,0.7822 -34.8922,-0.025 -39.2646,-0.2115 -41.8065,-1.7874 z m 99.0968,0.1922 c -1.5613,-0.847 -2.8387,-1.9897 -2.8387,-2.5393 0,-0.6114 9.3167,-1.056 24,-1.1454 41.7845,-0.2543 51.4769,0.076 55.7419,1.9005 2.1291,0.9108 3.871,2.0499 3.871,2.5314 0,0.4815 -17.5355,0.8569 -38.9677,0.8342 -32.5309,-0.035 -39.4367,-0.2958 -41.8065,-1.5814 z m 197.4194,-0.7728 -4.6452,-2.2497 38.1936,-0.2844 c 33.4689,-0.2493 38.7682,-0.073 42.8387,1.4261 2.5548,0.9407 5.0864,2.1139 5.6258,2.607 0.5563,0.5086 -15.9721,0.8649 -38.1936,0.8236 -38.0629,-0.071 -39.3059,-0.1368 -43.8193,-2.3226 z m -907.3549,-6.7685 c 0,-2.9095 3.8824,-3.6505 22.5442,-4.3025 22.8046,-0.7968 57.8,-0.034 58.6107,1.2778 0.3142,0.5084 0.01,1.6007 -0.6763,2.4274 -1.0525,1.2683 -7.4382,1.5032 -40.863,1.5032 -22.0372,0 -39.6156,-0.4019 -39.6156,-0.9059 z m 95.5119,-0.081 c -0.3354,-0.5428 0.45,-1.6548 1.7456,-2.4711 2.5165,-1.5855 28.7962,-2.4054 62.0007,-1.9344 13.8455,0.1964 16.3857,0.4792 16.9246,1.8837 0.3488,0.9089 -0.014,2.063 -0.8065,2.5648 -1.9899,1.26 -79.0848,1.2185 -79.8644,-0.043 z m 95.9108,-0.1445 c -0.3846,-0.6221 0,-1.8348 0.8642,-2.6947 1.3404,-1.3404 6.949,-1.5599 39.3014,-1.539 20.7559,0.014 38.2234,0.3245 38.8168,0.6911 0.5933,0.3668 1.0788,1.5685 1.0788,2.6704 0,1.9486 -1.0904,2.0036 -39.681,2.0036 -27.6568,0 -39.8929,-0.3428 -40.3802,-1.1314 z m 95.8917,-0.4864 c -0.3414,-0.8898 -0.1428,-2.0957 0.4415,-2.68 0.6902,-0.6902 14.1386,-1.0504 38.4036,-1.0287 37.9808,0.034 40.2921,0.2582 40.2921,3.9045 0,1.1829 -6.601,1.422 -39.2582,1.422 -34.6922,0 -39.3304,-0.1882 -39.879,-1.6178 z m 95.617,0.026 c -2.8691,-3.4572 0.164,-3.7554 37.7101,-3.7085 31.9007,0.04 37.2062,0.267 39.3724,1.6864 1.3769,0.9023 2.229,2.0845 1.8935,2.6273 -0.3702,0.5992 -15.7442,0.9869 -39.1322,0.9869 -33.4533,0 -38.6963,-0.2095 -39.8438,-1.5921 z m 97.4323,0.5668 c -2.7421,-1.1064 -3.8425,-2.7458 -2.4291,-3.6192 0.5857,-0.362 17.6114,-0.6384 37.8349,-0.614 31.4092,0.037 37.1257,0.2772 39.2099,1.6428 1.342,0.8794 2.44,2.0526 2.44,2.6073 0,1.272 -73.9012,1.2558 -77.0557,-0.016 z m 94.1422,-1.2084 c -1.1653,-0.9447 -1.8282,-2.0095 -1.473,-2.3661 0.3551,-0.3568 17.0024,-0.6349 36.9939,-0.6179 36.9234,0.031 40.9667,0.4134 42.1303,3.9821 0.3562,1.0925 -6.6917,1.2863 -37.5469,1.0323 -33.5925,-0.2767 -38.2305,-0.5114 -40.1043,-2.0304 z m 97.6679,1.0637 c -0.9866,-0.365 -2.4152,-1.4123 -3.1747,-2.3274 -1.2657,-1.525 1.6958,-1.6639 35.4927,-1.6639 31.7952,0 37.3572,0.2295 40.3845,1.666 1.931,0.9163 3.5108,2.0939 3.5108,2.6169 0,1.066 -73.3012,0.7856 -76.2133,-0.2916 z m 97.111,-0.4188 c -1.7058,-0.7173 -3.4169,-1.8144 -3.8024,-2.4382 -0.5074,-0.8211 25.7763,-1.1343 95.176,-1.1343 85.0292,0 96.4234,0.1862 100.7062,1.6454 2.6559,0.905 4.829,2.0587 4.829,2.5635 0,0.5304 -40.926,0.8653 -96.9038,0.7929 -75.5107,-0.098 -97.5883,-0.4132 -100.005,-1.4293 z m -1180.648,-0.4622 c 0.34627,-0.5602 3.22746,-1.7738 6.40264,-2.6969 4.6856,-1.3621 6.47431,-1.4528 9.49585,-0.4809 2.73469,0.8795 23.17554,1.081 77.01312,0.759 40.30968,-0.2411 73.9871,-0.5394 74.83871,-0.6629 0.85161,-0.1236 10.07266,0.1266 20.49122,0.5556 16.3834,0.6748 18.61495,0.9619 16.51613,2.1259 -1.94729,1.08 -22.47502,1.353 -103.90698,1.3824 -66.49932,0.024 -101.26325,-0.3146 -100.85069,-0.9822 z m 222.30138,-0.2716 c 0.87683,-0.8794 7.27074,-1.5196 20.07742,-2.0101 10.33498,-0.3959 19.48765,-0.7794 20.33926,-0.8523 0.85162,-0.073 10.30802,0.208 21.01423,0.6241 16.83396,0.6542 19.13679,0.939 17.03226,2.106 -3.48544,1.9328 -80.38763,2.0624 -78.46317,0.1323 z m 94.96798,0 c 1.68668,-1.6913 32.86291,-2.727 60.43051,-2.0076 17.48293,0.4562 20.24983,0.7407 18.64143,1.9169 -2.6871,1.9648 -81.03055,2.0547 -79.07194,0.091 z m 185.62524,-5.6603 c -27.9921,-0.2352 -35.8589,-0.5848 -35.5297,-1.5789 0.2988,-0.9023 5.2439,-1.4837 16.8558,-1.9815 26.4943,-1.136 59.0316,-1.4271 59.9229,-0.5362 1.2469,1.2464 -1.1116,4.3334 -3.3374,4.3681 -1.0775,0.017 -18.1377,-0.1054 -37.9116,-0.2715 z m 92.9848,-0.017 c -20.2968,-0.1565 -36.9033,-0.6863 -36.9033,-1.1774 0,-2.7246 4.1534,-3.0823 39.4528,-3.3974 38.0007,-0.3392 40.135,-0.1332 38.6522,3.7309 -0.3415,0.8898 -1.4483,1.5077 -2.4597,1.3731 -1.0113,-0.1345 -18.4453,-0.3727 -38.742,-0.5292 z m 93.3461,-1e-4 c -34.9605,-0.2651 -37.4693,-0.4053 -37.1488,-2.0777 0.3147,-1.6415 3.012,-1.8416 31.8152,-2.3602 17.3092,-0.3116 34.4907,-0.3116 38.181,0 5.9686,0.5041 6.7461,0.8232 7.0396,2.8892 0.2108,1.4844 -0.1618,2.2342 -1.0323,2.0779 -0.7492,-0.1348 -18.2338,-0.3728 -38.8547,-0.5292 z m 93.4926,1e-4 c -37.0738,-0.2774 -37.9355,-0.3305 -37.9355,-2.3357 0,-1.9871 0.8224,-2.0593 26.0645,-2.2913 32.8347,-0.3017 48.416,0.1676 50.0645,1.5079 1.3856,1.1264 1.7999,4.0541 0.5161,3.648 -0.4258,-0.1348 -17.8451,-0.3728 -38.7096,-0.5289 z m -759.3878,-0.9961 c -0.86655,-0.3428 0.59061,-1.3541 3.61291,-2.5073 3.91523,-1.4938 5.65878,-1.689 7.67985,-0.8598 1.75244,0.719 22.51742,0.9183 62.96775,0.6042 33.19418,-0.2578 63.14016,-0.4845 66.54661,-0.5037 3.40645,-0.02 7.08384,0.233 8.17198,0.5604 1.67236,0.5033 1.45441,0.8157 -1.40883,2.0196 -2.77593,1.1672 -16.26741,1.4096 -74.75263,1.3428 -39.25095,-0.044 -72.01888,-0.3401 -72.81764,-0.6562 z m 166.09744,-0.5047 c 0,-1.4915 4.77988,-1.8227 33.03226,-2.2894 37.65248,-0.6221 41.49078,-0.5876 43.23345,0.3877 1.21147,0.678 1.10328,1.0339 -0.58958,1.9399 -2.395,1.2818 -75.67613,1.2448 -75.67613,-0.038 z m 92.90323,0.021 c 0,-1.5181 4.70849,-1.8543 32,-2.2847 15.04516,-0.2373 29.44516,-0.5405 32,-0.6737 2.55484,-0.1332 6.70992,0.1122 9.23353,0.5454 4.11622,0.7065 4.39727,0.9272 2.73129,2.1455 -1.46233,1.0692 -9.73334,1.3274 -38.91095,1.2144 -20.37963,-0.079 -37.05387,-0.5052 -37.05387,-0.947 z m 93.12979,-0.4239 c 1.53275,-1.4683 74.35554,-2.5607 75.78394,-1.1368 2.1758,2.169 -4.7839,2.6104 -39.5829,2.5107 -29.67085,-0.085 -37.24625,-0.3726 -36.20104,-1.3739 z m 462.30134,0.1892 c -0.6959,-0.8384 -0.8061,-1.7054 -0.2596,-2.043 0.522,-0.3227 17.2565,-0.6619 37.1879,-0.754 36.1846,-0.167 39.3825,0.1049 39.3825,3.3476 0,0.5032 -16.6981,0.906 -37.5511,0.906 -31.0663,0 -37.7597,-0.2516 -38.7597,-1.4566 z m 92.8062,-0.1168 c -0.7182,-0.8654 -1.1234,-1.7556 -0.9006,-1.9784 0.3927,-0.3926 44.4012,-0.8565 63.5166,-0.6696 7.779,0.076 9.8616,0.4485 11.871,2.1225 2.4322,2.0263 2.3639,2.0302 -35.3722,2.0645 -32.6436,0.03 -37.9874,-0.1806 -39.1148,-1.539 z m 93.3809,0.1094 c -1.1012,-0.8053 -1.7543,-1.7119 -1.4513,-2.0148 0.4937,-0.4937 30.6839,-0.8377 61.5252,-0.7012 9.8732,0.043 11.8429,0.3379 13.9354,2.0811 2.4324,2.0264 2.3672,2.0302 -34.7851,2.0645 -30.5435,0.028 -37.5812,-0.2284 -39.2242,-1.4296 z m 93.2205,0.027 c -0.9936,-0.7542 -1.8065,-1.6685 -1.8065,-2.0316 0,-0.3633 16.0489,-0.6605 35.6642,-0.6605 29.9494,0 36.1522,0.2524 38.7097,1.5749 1.675,0.8662 3.0455,1.7952 3.0455,2.0645 0,0.2694 -16.6065,0.4749 -36.9032,0.4568 -29.0499,-0.026 -37.2877,-0.3246 -38.7097,-1.4041 z m 93.4193,0.1771 c -1.2774,-0.6161 -2.3225,-1.5137 -2.3225,-1.9947 0,-0.481 31.5177,-0.8745 70.0395,-0.8745 68.5865,0 74.7577,0.256 78.0379,3.2377 1.5074,1.3701 -142.9069,1.005 -145.7549,-0.3685 z m -1168.2121,-6.9238 c -0.32563,-0.5269 0.3574,-1.2592 1.51782,-1.6276 2.63613,-0.8367 119.60472,-0.9772 120.43723,-0.1447 0.33436,0.3344 -0.64803,1.0854 -2.18308,1.6691 -3.60373,1.3701 -118.92755,1.4695 -119.77197,0.1032 z m 144.4702,-0.074 c -3.40646,-0.3769 -5.9613,-0.8309 -5.67742,-1.0088 0.28387,-0.178 8.4914,-0.6044 18.23896,-0.9478 9.74755,-0.3432 18.09539,-0.9977 18.55075,-1.4544 2.20873,-2.2151 -4.57366,-2.7521 -34.94695,-2.7668 -31.67303,-0.015 -32.77381,-0.082 -33.84276,-2.0803 -1.09621,-2.0483 -0.78997,-2.0642 38.93142,-2.0317 35.42863,0.029 39.80571,0.2073 38.03257,1.5484 -1.10206,0.8336 -2.55486,1.5156 -3.22844,1.5156 -0.67359,0 -1.75795,0.6425 -2.4097,1.4278 -1.92186,2.3158 1.08847,2.8694 18.90311,3.4769 14.14382,0.4822 16.15747,0.7537 14.51238,1.9566 -1.51399,1.1071 -8.0239,1.3607 -31.39025,1.2232 -16.21407,-0.095 -32.26722,-0.4818 -35.67367,-0.8587 z m 90.83871,0.046 c -10.6831,-0.9184 -5.08372,-1.9815 13.41935,-2.5479 8.51613,-0.2607 16.18065,-0.5251 17.03226,-0.5875 0.85161,-0.062 9.86584,0.2119 20.0316,0.6098 15.88399,0.6217 18.21513,0.9195 16.57689,2.1174 -1.5082,1.1028 -7.95508,1.3559 -30.8703,1.2116 -15.9302,-0.1001 -32.21561,-0.4618 -36.1898,-0.8034 z m 90.83871,0.023 c -6.26105,-0.4434 -7.66726,-0.7981 -5.81496,-1.4668 2.65703,-0.9593 71.08474,-1.2891 72.02664,-0.3471 0.3166,0.3166 0.2695,1.071 -0.1047,1.6766 -0.7173,1.1605 -50.20801,1.2634 -66.10698,0.1373 z m 82.06508,-0.2659 c -3e-4,-0.3922 0.4865,-1.0143 1.0818,-1.3822 1.5019,-0.9282 71.7677,-0.879 73.273,0.052 3.4921,2.1582 -4.1508,2.631 -37.9677,2.3483 -20.0125,-0.1672 -36.3867,-0.625 -36.3871,-1.0173 z m 90.1472,-0.3189 c 0.4719,-1.4285 27.6495,-2.2949 53.5942,-1.7087 17.6721,0.3993 21.4193,0.7425 21.4193,1.9619 0,1.2617 -5.51,1.4268 -37.6772,1.1284 -24.5032,-0.2272 -37.558,-0.7104 -37.3363,-1.3816 z m 89.6614,-0.2581 c 0.3219,-1.673 3.0069,-1.8265 36.3407,-2.078 35.3379,-0.2667 38.8179,4e-4 38.8179,2.9785 0,0.5033 -16.7843,0.906 -37.7531,0.906 -35.3996,0 -37.7315,-0.1127 -37.4055,-1.8065 z m 89.6102,0.3186 c 0,-0.8181 0.4565,-1.7695 1.0143,-2.1143 0.5578,-0.3448 16.6066,-0.6084 35.6641,-0.5859 33.3653,0.039 38.6764,0.4776 38.6764,3.1917 0,0.6215 -14.1633,0.9959 -37.6774,0.9959 -32.117,0 -37.6774,-0.2195 -37.6774,-1.4874 z m 90.3226,0.4552 c -1.724,-2.7895 1.7582,-3.0968 35.0904,-3.0968 32.8627,0 39.7483,0.532 39.7483,3.0712 0,1.4397 -73.9491,1.465 -74.8387,0.026 z m 90.3327,-0.504 c -1.0241,-1.2339 -0.9835,-1.648 0.2067,-2.1046 0.8149,-0.3128 17.1093,-0.4344 36.2097,-0.2704 31.4573,0.2703 34.898,0.4685 36.5332,2.1048 1.7193,1.7204 0.056,1.8064 -34.9348,1.8064 -31.2685,0 -36.9297,-0.2287 -38.0148,-1.5362 z m 91.035,0.2975 c -0.6813,-0.6813 -1.2387,-1.6276 -1.2387,-2.1031 0,-0.4753 16.0097,-0.7308 35.5772,-0.5677 32.2678,0.2691 35.7452,0.4647 37.3825,2.1031 1.7193,1.7204 0.084,1.8064 -34.3385,1.8064 -26.7355,0 -36.4663,-0.3224 -37.3825,-1.2387 z m 90.3902,-0.1865 c -0.9847,-0.7478 -1.4879,-1.662 -1.1182,-2.0317 0.3696,-0.3696 15.4741,-0.6721 33.5655,-0.6721 26.3885,0 33.6012,0.2958 36.4731,1.4958 1.9689,0.8226 3.5797,1.7516 3.5797,2.0645 0,0.3127 -15.9096,0.554 -35.3548,0.5359 -27.6092,-0.026 -35.7471,-0.3307 -37.1453,-1.3924 z m 90.2742,0.044 c -1.2952,-0.7191 -2.0307,-1.6317 -1.6344,-2.028 0.3963,-0.3963 15.6237,-0.7083 33.8389,-0.6935 30.3173,0.025 33.4674,0.1924 37.2472,1.9811 l 4.1291,1.9538 -35.6129,0.046 c -26.8843,0.035 -36.1902,-0.2735 -37.9679,-1.2604 z m 90.8711,0.1207 c -1.2774,-0.6161 -2.3226,-1.5313 -2.3226,-2.0338 0,-0.5177 15.0944,-0.7848 34.8387,-0.6164 29.9857,0.2557 35.342,0.537 38.4516,2.0194 3.4497,1.6444 1.9807,1.7229 -32.5161,1.7365 -23.8894,0.01 -36.9158,-0.3651 -38.4516,-1.1057 z M 709.86186,2472.203 c -17.31613,-0.1522 -32.18065,-0.5541 -33.03226,-0.8932 -1.17338,-0.4673 -0.92337,-0.8778 1.03226,-1.6953 2.48024,-1.0368 70.77094,-2.5045 76.38709,-1.6417 1.93721,0.2976 0.73908,0.9693 -4.80541,2.6941 -4.06232,1.2637 -7.54619,2.1885 -7.74193,2.0552 -0.19574,-0.1332 -14.52362,-0.3668 -31.83975,-0.5191 z m 263.2394,-0.2498 c -31.85338,-0.495 -34.59432,-0.6789 -34.91441,-2.3435 -0.32589,-1.6949 2.08001,-1.8065 38.95416,-1.8065 21.61582,0 39.30149,0.2229 39.30149,0.4952 0,0.5802 -8.0338,4.7787 -8.475,4.429 -0.1646,-0.1304 -15.85436,-0.4788 -34.86624,-0.7742 z m 350.69604,0.2376 c -33.9768,-0.2789 -34.8387,-0.3368 -34.8387,-2.3368 0,-2.0087 0.7721,-2.0508 37.5803,-2.0508 h 37.5803 l -1.1932,2.5726 c -0.6562,1.4149 -1.8899,2.4665 -2.7416,2.3368 -0.8516,-0.1297 -17.2258,-0.3646 -36.3871,-0.5218 z m 52.8012,-1.4811 c -0.5116,-0.9561 -0.9302,-2.0013 -0.9302,-2.3225 0,-0.3212 17.2134,-0.584 38.2521,-0.584 38.2289,0 38.2511,0 36.785,2.0946 -1.4208,2.0285 -2.599,2.1017 -37.3219,2.3225 -32.6995,0.208 -35.9366,0.075 -36.785,-1.5106 z m 89.0356,1.2225 c -0.3715,-0.2838 -1.313,-1.329 -2.0921,-2.3225 -1.3438,-1.7135 0.5548,-1.8065 36.8698,-1.8065 38.104,0 38.283,0.01 37.5078,2.1059 -0.7612,2.0577 -1.5892,2.1109 -36.1945,2.3226 -19.4784,0.1191 -35.7193,-0.015 -36.091,-0.2995 z m 86.0342,-1.5339 -3.0968,-2.5849 h 38.8712 c 38.364,0 38.864,0.022 38.3311,2.0594 -0.5253,2.009 -1.408,2.0645 -32.8065,2.0645 -17.7467,0 -33.6022,0.2365 -35.2345,0.5254 -2.1726,0.3846 -3.7974,-0.1671 -6.0645,-2.0593 z m 87.9219,-0.014 -3.2609,-2.0646 19.2789,-0.2805 c 10.6035,-0.1544 28.1559,-0.1544 39.0055,0 18.4098,0.2619 19.6372,0.3982 18.3905,2.0433 -1.2043,1.5892 -4.7253,1.7925 -35.7446,2.0645 -32.9136,0.2887 -34.5503,0.2121 -37.6694,-1.7627 z m 87.9762,0 -3.511,-2.0646 19.2869,-0.2805 c 10.6078,-0.1544 28.1064,-0.1544 38.8857,0 18.1745,0.2601 19.5062,0.4071 18.3242,2.022 -1.1424,1.5609 -4.8066,1.7747 -35.3746,2.0645 -32.5574,0.3084 -34.259,0.2296 -37.6112,-1.7414 z m 88.8761,-0.049 -4.6452,-2.5538 56.7742,0.2803 c 50.3431,0.2486 57.1835,0.4741 60.3871,1.9911 3.4188,1.6189 0.7761,1.7153 -49.1613,1.795 -29.0257,0.046 -54.1096,0.2996 -55.7419,0.5627 -1.9383,0.3125 -4.5791,-0.4074 -7.6129,-2.0753 z m -965.46038,-0.4676 c -0.53288,-2.0377 -0.0317,-2.0645 38.58928,-2.0645 21.52104,0 39.12917,0.2203 39.12917,0.4896 0,0.2693 -1.37048,1.1984 -3.04551,2.0645 -2.55692,1.3222 -8.74788,1.5749 -38.58929,1.5749 -34.67563,0 -35.55696,-0.05 -36.08365,-2.0645 z m 175.43888,1.3763 c -0.3785,-0.3784 -0.6882,-1.3074 -0.6882,-2.0645 0,-1.1223 7.0804,-1.3763 38.3536,-1.3763 38.2881,0 38.3503,0 36.4851,2.0645 -1.7999,1.989 -3.1793,2.0645 -37.6653,2.0645 -19.6884,0 -36.1067,-0.3096 -36.4852,-0.6882 z m 87.7419,0 c -0.3785,-0.3784 -0.6881,-1.3074 -0.6881,-2.0645 0,-1.1223 7.0804,-1.3763 38.3535,-1.3763 38.2881,0 38.3503,0 36.4852,2.0645 -1.8,1.989 -3.1794,2.0645 -37.6654,2.0645 -19.6883,0 -36.1067,-0.3096 -36.4852,-0.6882 z m 86.7547,-1.3763 c -0.5327,-2.0369 -0.032,-2.0645 37.5658,-2.0645 37.8472,0 38.0969,0.015 36.8163,2.0645 -1.2496,2.001 -2.4072,2.0645 -37.5658,2.0645 -35.4083,0 -36.2893,-0.049 -36.8163,-2.0645 z"
         style="fill:#3e3e3e;stroke-width:1.03225803" />
    </g>
  </g>
</svg>
